<mxfile host="app.diagrams.net" modified="2023-10-17T04:25:53.683Z" agent="Mozilla/5.0 (Windows NT 10.0; Win64; x64; rv:105.0) Gecko/20100101 Firefox/105.0" etag="92hBbAXl9O2rF5P6kgFu" version="22.0.4" type="github">
  <diagram id="C5RBs43oDa-KdzZeNtuy" name="Page-1">
    <mxGraphModel dx="1050" dy="558" grid="1" gridSize="10" guides="1" tooltips="1" connect="1" arrows="1" fold="1" page="1" pageScale="1" pageWidth="827" pageHeight="1169" math="0" shadow="0">
      <root>
        <mxCell id="WIyWlLk6GJQsqaUBKTNV-0" />
        <mxCell id="WIyWlLk6GJQsqaUBKTNV-1" parent="WIyWlLk6GJQsqaUBKTNV-0" />
        <mxCell id="gNR5llckBZWzXUd6A0-1-13" value="" style="edgeStyle=orthogonalEdgeStyle;rounded=0;orthogonalLoop=1;jettySize=auto;html=1;" edge="1" parent="WIyWlLk6GJQsqaUBKTNV-1" source="gNR5llckBZWzXUd6A0-1-0" target="gNR5llckBZWzXUd6A0-1-1">
          <mxGeometry relative="1" as="geometry" />
        </mxCell>
        <mxCell id="gNR5llckBZWzXUd6A0-1-0" value="STAR" style="html=1;dashed=0;whiteSpace=wrap;shape=mxgraph.dfd.start" vertex="1" parent="WIyWlLk6GJQsqaUBKTNV-1">
          <mxGeometry x="340" y="50" width="130" height="70" as="geometry" />
        </mxCell>
        <mxCell id="gNR5llckBZWzXUd6A0-1-14" value="" style="edgeStyle=orthogonalEdgeStyle;rounded=0;orthogonalLoop=1;jettySize=auto;html=1;" edge="1" parent="WIyWlLk6GJQsqaUBKTNV-1" source="gNR5llckBZWzXUd6A0-1-1" target="gNR5llckBZWzXUd6A0-1-2">
          <mxGeometry relative="1" as="geometry" />
        </mxCell>
        <mxCell id="gNR5llckBZWzXUd6A0-1-1" value="&lt;div&gt;LS&lt;/div&gt;&lt;div&gt;a&lt;/div&gt;&lt;div&gt;t&lt;br&gt;&lt;/div&gt;" style="shape=parallelogram;html=1;strokeWidth=2;perimeter=parallelogramPerimeter;whiteSpace=wrap;rounded=1;arcSize=12;size=0.23;" vertex="1" parent="WIyWlLk6GJQsqaUBKTNV-1">
          <mxGeometry x="340" y="180" width="130" height="80" as="geometry" />
        </mxCell>
        <mxCell id="gNR5llckBZWzXUd6A0-1-15" value="" style="edgeStyle=orthogonalEdgeStyle;rounded=0;orthogonalLoop=1;jettySize=auto;html=1;" edge="1" parent="WIyWlLk6GJQsqaUBKTNV-1" source="gNR5llckBZWzXUd6A0-1-2" target="gNR5llckBZWzXUd6A0-1-5">
          <mxGeometry relative="1" as="geometry" />
        </mxCell>
        <mxCell id="gNR5llckBZWzXUd6A0-1-2" value="LS = 1/2 x a x t" style="html=1;dashed=0;whiteSpace=wrap;" vertex="1" parent="WIyWlLk6GJQsqaUBKTNV-1">
          <mxGeometry x="335" y="330" width="140" height="60" as="geometry" />
        </mxCell>
        <mxCell id="gNR5llckBZWzXUd6A0-1-16" value="" style="edgeStyle=orthogonalEdgeStyle;rounded=0;orthogonalLoop=1;jettySize=auto;html=1;" edge="1" parent="WIyWlLk6GJQsqaUBKTNV-1" source="gNR5llckBZWzXUd6A0-1-5" target="gNR5llckBZWzXUd6A0-1-6">
          <mxGeometry relative="1" as="geometry" />
        </mxCell>
        <mxCell id="gNR5llckBZWzXUd6A0-1-5" value="LS" style="strokeWidth=2;html=1;shape=mxgraph.flowchart.decision;whiteSpace=wrap;" vertex="1" parent="WIyWlLk6GJQsqaUBKTNV-1">
          <mxGeometry x="335" y="450" width="140" height="120" as="geometry" />
        </mxCell>
        <mxCell id="gNR5llckBZWzXUd6A0-1-6" value="END" style="strokeWidth=2;html=1;shape=mxgraph.flowchart.terminator;whiteSpace=wrap;" vertex="1" parent="WIyWlLk6GJQsqaUBKTNV-1">
          <mxGeometry x="560" y="480" width="100" height="60" as="geometry" />
        </mxCell>
      </root>
    </mxGraphModel>
  </diagram>
</mxfile>
